<?xml version="1.0" encoding="utf-8"?>
<!-- Generator: Adobe Illustrator 28.0.0, SVG Export Plug-In . SVG Version: 6.00 Build 0)  -->
<svg version="1.1" id="Layer_1" xmlns="http://www.w3.org/2000/svg" xmlns:xlink="http://www.w3.org/1999/xlink" x="0px" y="0px"
	 viewBox="0 0 210.48 180.48" style="enable-background:new 0 0 210.48 180.48;" xml:space="preserve">
<style type="text/css">
	.st0{fill:#44B75E;}
</style>
<path class="st0" d="M109.44,180.48c0-6.27,0-12.54,0-18.93c0.68,0,1.22,0,1.77,0c5.43-0.04,10.88,0.26,16.26-0.74
	c4.86-0.9,9.46-2.37,13.03-6.03c2.28-2.33,3.51-5.18,4.01-8.53c-0.5-0.02-0.92-0.05-1.34-0.06c-4.15-0.09-8.34,0.08-12.46-0.33
	c-9.23-0.91-16.67-4.81-20.73-13.65c-2.09-4.55-2.64-9.42-2.59-14.37c0.06-5.74,1.1-11.27,3.73-16.42
	c4.45-8.72,11.74-13.16,21.36-14.09c4.97-0.48,9.84-0.06,14.47,1.84c7.91,3.25,12.42,9.47,14.76,17.46
	c1.07,3.63,1.37,7.37,1.43,11.13c0.05,3.07,0.01,6.14,0.01,9.24c1.68,0,3.23-0.01,4.78,0c3.84,0.02,7.68,0.14,11.51,0.05
	c1.98-0.04,4-0.25,5.92-0.72c3.27-0.8,4.81-2.88,5.17-6.64c0.18-1.91,0.24-3.83,0.25-5.74c0.03-7.44,0.01-14.87,0.01-22.4
	c6.22,0,12.38,0,18.63,0c0.02,0.41,0.05,0.8,0.05,1.19c0,8.04,0.07,16.08-0.02,24.12c-0.07,5.8-1.03,11.45-3.98,16.58
	c-3.99,6.92-10.22,10.61-17.89,11.97c-2.85,0.51-5.79,0.67-8.69,0.73c-5.23,0.11-10.47,0.03-15.73,0.03
	c-0.3,1.93-0.52,3.83-0.89,5.69c-2.08,10.46-8.09,17.95-17.43,22.88c-5.98,3.16-12.44,4.68-19.13,5.28
	c-2.3,0.21-4.62,0.32-6.92,0.47C115.68,180.48,112.56,180.48,109.44,180.48z M145,126.93c-0.16-4.39-0.1-8.79-0.55-13.13
	c-0.54-5.24-3.47-7.89-8.67-8.09c-4.16-0.16-7.54,1.3-9.21,5.75c-0.97,2.58-1.24,5.3-0.96,8.02c0.49,4.85,2.45,7.02,7.19,7.39
	C136.72,127.17,140.68,126.93,145,126.93z"/>
<path class="st0" d="M0,80.16c5.99,0,11.98,0,18.12,0c0,0.63,0,1.13,0,1.64c0,11.44-0.01,22.87,0.01,34.31
	c0,1.27,0.11,2.56,0.32,3.81c0.83,4.9,3.21,7.04,8.18,7.14c4.23,0.08,8.47-0.05,12.71-0.09c0.24,0,0.48-0.02,0.72-0.06
	c3.05-0.51,3.57-0.96,3.74-4.04c0.22-3.95,0.11-7.91,0.4-11.85c0.52-7.07,2.41-13.66,7.41-19.02c3.6-3.86,8.09-6.04,13.22-6.93
	c5.59-0.97,11.16-0.77,16.59,0.92c7.67,2.38,12.71,7.59,15.07,15.16c3.14,10.07,3.31,20.25-0.48,30.18
	c-3.52,9.25-10.48,14.41-20.33,15.58c-6.21,0.74-12.28,0.28-18-2.48c-1.75-0.84-3.35-1.99-5.1-3.05c-2.93,2.46-6.45,3.86-10.31,4.4
	c-1.77,0.25-3.58,0.38-5.37,0.38c-4.75-0.01-9.52,0.1-14.26-0.25c-10.15-0.75-17.69-6.81-20.66-16.55c-0.9-2.95-1.19-6.08-1.75-9.13
	c-0.1-0.55-0.15-1.1-0.23-1.65C0,105.76,0,92.96,0,80.16z M80.34,116.42c-0.17-2.13-0.25-3.61-0.41-5.07
	c-0.54-4.87-2.68-7.23-7.5-7.77c-5.2-0.58-8.93,1.38-9.86,6.82c-0.63,3.66-0.62,7.3,0.07,10.95c0.87,4.64,3.46,6.91,8.18,7.21
	c4.27,0.27,7.53-1.93,8.58-6.05C79.95,120.32,80.1,118.04,80.34,116.42z"/>
<path class="st0" d="M96.48,0c0.04,0.47,0.11,0.95,0.11,1.42c0.01,9.95,0.05,19.91-0.01,29.86c-0.04,7.1-1.24,13.98-4.6,20.33
	c-4.68,8.85-12.26,14.08-21.61,17c-6.26,1.95-12.71,2.61-19.25,2.69c-7.36,0.09-14.69-0.08-21.88-1.94
	c-7.54-1.95-14.23-5.37-19.5-11.24c-4.58-5.1-7.26-11.14-8.49-17.8C0.6,36.76,0.4,33.12,0,29.52C0,19.76,0,10,0,0.24
	C0.28,0.2,0.55,0.13,0.83,0.13c5.72-0.01,11.44,0,17.16,0c0.22,0,0.44,0.07,0.73,0.12c0,2.35-0.02,4.62,0,6.9
	c0.07,8.35,0.01,16.71,0.3,25.06c0.15,4.36,1.6,8.45,4.36,11.95c3.33,4.21,7.94,6.12,13.02,7.2c5.01,1.07,10.1,1.11,15.16,0.87
	c3.93-0.19,7.91-0.56,11.73-1.43c9.52-2.15,14.48-8.65,14.48-18.41c0-10.8,0-21.6,0-32.4C84,0,90.24,0,96.48,0z"/>
<path class="st0" d="M47.76,0c1.21,1.26,2.41,2.54,3.65,3.78c2.9,2.92,5.82,5.82,8.63,8.63c-4.22,4.23-8.41,8.42-12.5,12.52
	c-4.04-4.04-8.22-8.22-12.59-12.58C39.08,8.28,43.3,4.14,47.52,0C47.6,0,47.68,0,47.76,0z"/>
<path class="st0" d="M210.48,66c-0.61,0.56-1.24,1.09-1.81,1.68c-3.44,3.51-6.86,7.04-10.25,10.52c-4.31-4.29-8.41-8.37-12.54-12.48
	c4.08-3.97,8.22-8,12.45-12.12c0.1,0.09,0.41,0.38,0.71,0.68c3.48,3.48,6.95,6.96,10.44,10.43c0.3,0.3,0.66,0.54,1,0.81
	C210.48,65.68,210.48,65.84,210.48,66z"/>
<path class="st0" d="M171.67,53.84c3.98,3.81,8.12,7.78,12.38,11.86c-4.27,4.13-8.42,8.14-12.49,12.08
	c-3.87-3.87-7.95-7.96-11.91-11.92C163.62,61.89,167.72,57.79,171.67,53.84z"/>
</svg>
